<?xml version="1.0" encoding="utf-8"?>
<!-- Generator: Adobe Illustrator 18.0.0, SVG Export Plug-In . SVG Version: 6.00 Build 0)  -->
<!DOCTYPE svg PUBLIC "-//W3C//DTD SVG 1.1//EN" "http://www.w3.org/Graphics/SVG/1.1/DTD/svg11.dtd">
<svg version="1.1" id="Layer_1" xmlns="http://www.w3.org/2000/svg" xmlns:xlink="http://www.w3.org/1999/xlink" x="0px" y="0px"
	 viewBox="0 985.9 2500 528.2" enable-background="new 0 985.9 2500 528.2" xml:space="preserve">
<g>
	<rect y="985.9" fill="#11366B" width="528.2" height="528.2"/>
	<path fill="#FFFFFF" d="M456.6,1251.2c0,137.3-78.6,193.7-193.7,193.7c-113.8,0-192.5-56.3-192.5-193.7s78.6-193.7,193.7-193.7
		C377.9,1057.5,456.6,1113.8,456.6,1251.2"/>
	<path fill="#11366B" d="M99.8,1251.2c0,116.2,59.9,164.3,164.3,164.3s164.3-48.1,164.3-164.3c0-116.2-59.9-164.3-164.3-164.3
		C158.5,1086.9,99.8,1135,99.8,1251.2"/>
	<path fill="#FFFFFF" d="M185.4,1122.1v55.2h-52.8c-4.7,15.3-8.2,46.9-9.4,63.4h61v140.8c12.9,4.7,45.8,10.6,61,10.6v-108l92.7,95.1
		c10.6-3.5,43.4-31.7,46.9-41.1l-91.5-97.4h109.2c-1.2-20-4.7-46.9-10.6-63.4H246.5v-65.7C233.6,1112.7,190.1,1119.7,185.4,1122.1"
		/>
	<path fill="#1A1A18" d="M745.3,1160.8l-91.5,176.1h31.7l24.6-46.9h92.7l24.6,46.9h32.9l-89.2-176.1H745.3 M755.9,1194.8l36.4,70.4
		h-71.6L755.9,1194.8z"/>
	<polyline fill="#1A1A18" points="881.5,1160.8 881.5,1336.9 1001.2,1336.9 1001.2,1312.2 912,1312.2 912,1160.8 881.5,1160.8 	"/>
	<path fill="#1A1A18" d="M1022.3,1160.8v176.1h30.5v-65.7h49.3c32.9,0,76.3-5.9,76.3-57.5c0-38.7-31.7-52.8-57.5-52.8H1022.3
		 M1113.8,1185.4c15.3,0,32.9,10.6,32.9,28.2c0,24.6-10.6,32.9-39.9,32.9h-55.2v-61H1113.8z"/>
	<polyline fill="#1A1A18" points="1341.5,1160.8 1341.5,1232.4 1233.6,1232.4 1233.6,1160.8 1203.1,1160.8 1203.1,1336.9 
		1233.6,1336.9 1233.6,1257 1341.5,1257 1341.5,1336.9 1372.1,1336.9 1372.1,1160.8 1341.5,1160.8 	"/>
	<path fill="#1A1A18" d="M1485.9,1160.8l-91.5,176.1h31.7l24.6-46.9h92.7l24.6,46.9h32.9l-89.2-176.1H1485.9 M1496.5,1194.8
		l36.4,70.4h-71.6L1496.5,1194.8z"/>
	<path fill="#1A1A18" d="M1676.1,1160.8v176.1h109.2c30.5,0,61-15.3,61-50.5c0-1.2-1.2-36.4-31.7-43.4c12.9-4.7,21.1-17.6,21.1-37.6
		c0-21.1-15.3-44.6-57.5-44.6H1676.1 M1777,1257c27,0,39.9,9.4,39.9,29.3c0,16.4-12.9,25.8-36.4,25.8h-73.9V1257L1777,1257
		L1777,1257z M1775.8,1185.4c20,0,30.5,7,30.5,20c0,12.9-3.5,27-38.7,27h-61v-46.9H1775.8z"/>
	<polyline fill="#1A1A18" points="2084.5,1336.9 2110.3,1336.9 2110.3,1190.1 2234.7,1336.9 2265.3,1336.9 2265.3,1160.8 
		2239.4,1160.8 2239.4,1298.1 2120.9,1160.8 2084.5,1160.8 2084.5,1336.9 	"/>
	<polyline fill="#1A1A18" points="2453.1,1160.8 2346.2,1246.5 2346.2,1160.8 2315.7,1160.8 2315.7,1336.9 2346.2,1336.9 
		2346.2,1274.6 2372.1,1253.5 2458.9,1336.9 2500,1336.9 2393.2,1237.1 2488.3,1160.8 2453.1,1160.8 	"/>
	<path fill="#1A1A18" d="M1946,1160.8l-91.5,176.1h31.7l24.6-46.9h92.7l24.6,46.9h32.9l-89.2-176.1H1946 M1957.7,1196l36.4,70.4
		h-71.6L1957.7,1196z"/>
</g>
</svg>
