<svg xmlns="http://www.w3.org/2000/svg" width="174" height="23" viewBox="0 0 174 23"><defs><clipPath id="3f9ia"><path d="M0 0h20.465v23H0z"/></clipPath></defs><g><g><g><path fill="#ea002a" d="M25.38 12.537v-.003L17.748 1.127 8.23 15.31l-.012.018h4.815l4.707-7.004 6.576 9.818.012.018.009-.02a13.105 13.105 0 0 0 1.044-5.603"/></g><g><g/><g><g/><g clip-path="url(#3f9ia)"><path fill="#ea002a" d="M17.786 18.998H1.436L14.089.097l.01-.016-.018-.002a12.5 12.5 0 0 0-5.114.483L8.96.563.002 13.946 0 13.95v.004a13.04 13.04 0 0 0 1.418 5.042l.01.02a12.908 12.908 0 0 0 3.189 3.983L4.62 23h15.845l-2.676-3.997z"/></g></g></g><g><path fill="#021342" d="M41.336 9.832h8.034v2.776h-8.034v4.837h8.686v2.775H38.083V2.78h11.94v2.776h-8.687z"/></g><g><path fill="#021342" d="M67.02 13.41a7.15 7.15 0 0 1-7.15 7.153 7.15 7.15 0 0 1-7.147-7.154V2.78h3.253V13.89a3.897 3.897 0 0 0 3.895 3.898 3.897 3.897 0 0 0 3.895-3.898V2.78h3.253z"/></g><g><path fill="#021342" d="M78.228 5.554a2.408 2.408 0 0 1 2.404 2.406 2.408 2.408 0 0 1-2.404 2.405h-4.82V5.554zm-4.82 7.587h3.424l4.074 7.08 3.723-.001-4.297-7.47c2.309-.866 3.53-2.522 3.53-4.79 0-1.235-.61-2.522-1.673-3.532-1.12-1.064-2.555-1.65-4.04-1.65h-7.996v17.443l3.253.001h.001z"/></g><g><path fill="#021342" d="M98.819 7.013c1.1 1.13 1.682 2.681 1.682 4.487s-.582 3.358-1.682 4.487c-1.045 1.072-2.487 1.663-4.06 1.663-1.575 0-3.017-.59-4.061-1.663-1.1-1.13-1.682-2.68-1.682-4.487 0-1.685.551-3.229 1.552-4.348 1.055-1.179 2.504-1.802 4.19-1.802 1.574 0 3.016.591 4.06 1.663zm4.832 4.487c0-4.997-3.99-9.063-8.892-9.063-4.904 0-8.893 4.066-8.893 9.063a9.11 9.11 0 0 0 2.579 6.382 8.736 8.736 0 0 0 6.314 2.68c4.903 0 8.892-4.065 8.892-9.062z"/></g><g><path fill="#021342" d="M113.71 5.555c.597 0 1.16.205 1.587.576.437.38.677.896.677 1.451 0 1.137-.965 2.028-2.197 2.028h-4.219V5.555zm.134 6.83c1.546 0 2.805 1.134 2.805 2.53 0 1.562-1.456 2.53-2.805 2.53h-4.286v-5.06zm4.206 6.196c.982-.987 1.546-2.287 1.546-3.568 0-2.318-1.034-3.662-3.352-4.355 1.63-.645 2.644-2.09 2.644-3.77 0-2.571-2.348-4.108-4.617-4.108h-7.966v17.44h7.993a5.486 5.486 0 0 0 3.752-1.639z"/></g><g><path fill="#021342" d="M159.084 2.78h3.255v7.402l7.03-7.402h3.906l-6.532 6.878L174 20.22h-3.72l-5.695-8.29-2.246 2.362v5.928h-3.255z"/></g><g><path fill="#021342" d="M131.75 12.801h-4.741l2.37-6.162zm-7.595 7.42l1.786-4.646h6.878l1.788 4.645 3.257-.001-7-17.44h-2.97l-6.999 17.441h3.259z"/></g><g><path fill="#021342" d="M143.65 2.78l8.005 12.474V2.78h3.254v17.44h-3.32L143.65 7.852V20.22h-3.254V2.78z"/></g></g></g></svg>