<svg width="345" height="97" viewBox="0 0 345 97" fill="none" xmlns="http://www.w3.org/2000/svg">
<g clip-path="url(#clip0_171_3981)">
<path d="M86.0303 96.1699L88.3103 94.9499V76.7699L86.0303 75.5499V75.3899H95.1503C100.43 75.3899 102.9 77.5799 102.9 80.6999C102.9 83.2899 100.9 85.0699 98.0603 85.5099C101.25 85.9199 103.43 87.8499 103.43 90.4799C103.43 94.5099 100.52 96.3199 95.5603 96.3199H86.0303V96.1599V96.1699ZM95.0903 84.7999C98.0903 84.7999 99.4603 83.8599 99.4603 81.1099C99.4603 78.5799 97.7703 76.9899 94.7703 76.9899H91.5503V84.7999H95.0803H95.0903ZM95.2803 94.7399C98.4403 94.7399 99.9303 93.6199 99.9303 90.7999C99.9303 87.9799 98.3403 86.3599 95.1803 86.3599H91.5603V94.7299H95.2803V94.7399Z" fill="#002D2F"/>
<path d="M107.24 91.08V82.99L105.27 81.8V81.64L110.2 80.52H110.36V91.14C110.36 93.26 111.36 94.58 113.2 94.58C115.54 94.58 116.85 92.55 116.85 88.96V82.53L115.04 81.44V81.28L119.82 80.47H119.98V94.53L121.95 95.62V95.78L117.01 96.59H116.85V93.47C116.01 95.66 114.35 96.78 112.26 96.78C108.86 96.78 107.23 94.56 107.23 91.09L107.24 91.08Z" fill="#002D2F"/>
<path d="M123.54 95.5199V91.7699H123.7C124.79 93.8299 126.64 95.2099 129.2 95.2099C131.57 95.2099 132.73 94.4899 132.73 92.8999C132.73 91.5599 131.76 90.8099 129.04 90.0899L128.57 89.9699C125.07 89.0299 123.51 87.5699 123.51 84.8799C123.51 82.1899 125.76 80.4099 129.16 80.4099C130.97 80.4099 132.81 80.8799 134.22 81.6599V85.1599H134.06C132.97 83.1599 131.16 81.9699 128.94 81.9699C126.85 81.9699 125.82 82.6299 125.82 84.0299C125.82 85.4299 126.85 86.2199 129.69 86.9699L130.16 87.0899C133.44 87.9599 135.03 89.4599 135.03 91.9299C135.03 95.1799 132.59 96.7699 128.94 96.7699C126.69 96.7699 124.91 96.2699 123.54 95.5199Z" fill="#002D2F"/>
<path d="M136.47 96.17L138.63 95.05V82.99L136.66 81.8V81.64L141.59 80.52H141.75V95.04L143.91 96.16V96.32H136.48V96.16L136.47 96.17ZM137.91 76.71C137.91 75.62 138.79 74.74 139.88 74.74C140.97 74.74 141.85 75.61 141.85 76.71C141.85 77.81 140.98 78.68 139.88 78.68C138.78 78.68 137.91 77.81 137.91 76.71Z" fill="#002D2F"/>
<path d="M144.47 96.1699L146.63 95.0499V82.9899L144.66 81.7999V81.6399L149.59 80.5199H149.75V83.9599C150.37 81.7699 152.19 80.3999 154.34 80.3999C157.59 80.3999 159.46 82.5899 159.46 86.6199V95.0499L161.62 96.1699V96.3299H154.19V96.1699L156.35 95.0499V86.2099C156.35 83.7399 155.35 82.5599 153.35 82.5599C151.13 82.5599 149.76 85.0299 149.76 89.0299V95.0599L151.92 96.1799V96.3399H144.49V96.1799L144.47 96.1699Z" fill="#002D2F"/>
<path d="M162.99 88.7399C162.99 83.9299 165.74 80.3999 170.14 80.3999C174.17 80.3999 176.32 83.2999 176.32 88.0499H166.11C166.23 92.3899 167.89 94.6399 171.79 94.6399C173.57 94.6399 174.88 94.1699 176.13 92.8299L176.25 92.9199C174.94 95.6399 173.19 96.7599 170.25 96.7599C165.69 96.7599 162.97 93.2899 162.97 88.7299L162.99 88.7399ZM173.14 86.6199C173.14 83.7499 171.98 81.8999 169.67 81.8999C167.48 81.8999 166.36 83.5599 166.14 86.6199H173.14Z" fill="#002D2F"/>
<path d="M178.86 95.5199V91.7699H179.02C180.11 93.8299 181.96 95.2099 184.52 95.2099C186.89 95.2099 188.05 94.4899 188.05 92.8999C188.05 91.5599 187.08 90.8099 184.36 90.0899L183.89 89.9699C180.39 89.0299 178.83 87.5699 178.83 84.8799C178.83 82.1899 181.08 80.4099 184.48 80.4099C186.29 80.4099 188.13 80.8799 189.54 81.6599V85.1599H189.38C188.29 83.1599 186.48 81.9699 184.26 81.9699C182.17 81.9699 181.14 82.6299 181.14 84.0299C181.14 85.4299 182.17 86.2199 185.01 86.9699L185.48 87.0899C188.76 87.9599 190.35 89.4599 190.35 91.9299C190.35 95.1799 187.91 96.7699 184.26 96.7699C182.01 96.7699 180.23 96.2699 178.86 95.5199Z" fill="#002D2F"/>
<path d="M192.63 95.5199V91.7699H192.79C193.88 93.8299 195.73 95.2099 198.29 95.2099C200.66 95.2099 201.82 94.4899 201.82 92.8999C201.82 91.5599 200.85 90.8099 198.13 90.0899L197.66 89.9699C194.16 89.0299 192.6 87.5699 192.6 84.8799C192.6 82.1899 194.85 80.4099 198.25 80.4099C200.06 80.4099 201.9 80.8799 203.31 81.6599V85.1599H203.15C202.06 83.1599 200.25 81.9699 198.03 81.9699C195.94 81.9699 194.91 82.6299 194.91 84.0299C194.91 85.4299 195.94 86.2199 198.78 86.9699L199.25 87.0899C202.53 87.9599 204.12 89.4599 204.12 91.9299C204.12 95.1799 201.68 96.7699 198.03 96.7699C195.78 96.7699 194 96.2699 192.63 95.5199Z" fill="#002D2F"/>
<path d="M86.8 59.59H109.22V59.16L102.06 55.8V36.66H108.61C124.91 36.66 133.27 30.36 133.27 18.98C133.27 8.37001 124.91 1.82001 108.61 1.82001H86.79V2.25001L93.08 5.61001V55.8L86.79 59.16V59.59H86.8ZM108.45 6.47001C118.54 6.47001 123.63 9.83001 123.63 19.23C123.63 28.63 118.54 31.99 108.45 31.99H102.07V6.47001H108.45ZM144.75 10.87C147.77 10.87 150.18 8.46001 150.18 5.44001C150.18 2.42001 147.77 0.0100098 144.75 0.0100098C141.73 0.0100098 139.32 2.42001 139.32 5.44001C139.32 8.46001 141.73 10.87 144.75 10.87ZM135.35 59.59H155.87V59.16L149.92 56.06V15.95H149.49L135.87 19.05V19.48L141.3 22.76V56.05L135.35 59.15V59.58V59.59ZM156.22 59.59H178.47V59.16L170.8 56.06V37.61C170.8 27.35 173.9 22.26 180.2 22.26C183.22 22.26 184.77 23.21 186.24 24.59H186.58V16.14C185.29 15.71 183.65 15.54 182.18 15.54C176.92 15.54 172.61 19.59 170.8 25.89V15.97H170.37L156.74 19.07V19.5L162.17 22.78V56.07L156.22 59.17V59.6V59.59ZM220.2 54.59V32C220.2 20.53 214.08 15.44 203.47 15.44C195.36 15.44 189.76 19.75 188.47 26.91L188.9 27.08C191.75 23.03 195.88 21.13 201.58 21.13C208.74 21.13 211.58 24.41 211.58 29.67V32.43L202.18 34.5C191.4 36.91 185.97 41.14 185.97 48.81C185.97 55.62 190.8 60.62 199.59 60.62C205.28 60.62 210.37 57.17 212.18 52.34V60.27H212.61L225.63 58.03V57.6L220.2 54.58V54.59ZM202.52 54.76C197.95 54.76 195.02 51.83 195.02 47.26C195.02 42.17 197.52 39.76 202.61 38.55L211.58 36.48V44.07C211.58 50.8 208.22 54.76 202.53 54.76M246.85 60.62C254.96 60.62 259.96 57.6 263.58 50.1L263.24 49.84C259.79 53.55 255.82 54.5 250.91 54.5C240.13 54.5 235.3 48.29 235.3 36.13H263.67C263.67 23.02 257.63 15.43 246.51 15.43C234.27 15.43 226.76 25.17 226.76 38.45C226.76 51.04 234.26 60.61 246.85 60.61M235.46 32.16C236.06 23.71 239.25 19.92 245.29 19.92C251.67 19.92 254.86 24.23 254.86 32.16H235.46ZM284.18 60.62C289.96 60.62 294.53 57.69 296.86 51.65V60.27H297.29L310.92 58.03V57.6L305.49 54.58V15.78H305.06L291.87 18.02V18.45L296.87 21.47V39.06C296.87 48.29 293.68 54.67 286.78 54.67C281.09 54.67 278.93 50.96 278.93 45.7V15.95H278.5L264.88 19.05V19.48L270.31 22.76V45.27C270.31 54.84 274.79 60.62 284.19 60.62M328.42 60.62C338.51 60.62 344.55 55.79 344.55 46.82C344.55 40.87 340.24 36.73 331.27 34.14L330.06 33.79C322.21 31.55 319.37 29.57 319.37 25.51C319.37 21.45 322.3 19.9 328.08 19.9C334.2 19.9 339.12 22.75 342.14 28.27H342.57V18.61C338.26 16.63 333.34 15.42 328.34 15.42C318.94 15.42 313.25 20.51 313.25 27.84C313.25 35.17 317.39 38.79 326.96 41.55L328.17 41.89C335.24 43.96 338.43 46.03 338.43 49.91C338.43 54.31 335.24 56.12 328.69 56.12C321.62 56.12 316.53 52.67 313.51 46.98H313.08V57.5C316.87 59.4 322.22 60.6 328.43 60.6" fill="#002D2F"/>
<path d="M18.06 1.82007V2.29007L23.15 5.00007L0 59.5901H17.28V59.1301L12.19 56.4101L35.34 1.82007H18.06Z" fill="#002D2F"/>
<path d="M55.3302 1.82007H38.0602V2.29007L43.1402 5.00007L19.9902 59.5901H37.2702V59.1301L32.1802 56.4101L55.3302 1.82007Z" fill="#002D2F"/>
<path d="M75.3302 1.82007H58.0502V2.29007L63.1402 5.00007L39.9902 59.5901H57.2602V59.1301L52.1802 56.4101L75.3302 1.82007Z" fill="#002D2F"/>
</g>
<defs>
<clipPath id="clip0_171_3981">
<rect width="344.55" height="96.77" fill="white"/>
</clipPath>
</defs>
</svg>
